# xmcd
#
# Track frame offsets:
#	150
#	15685
#	33462
#	43600
#	56870
#	69757
#	89540
#	109550
#	125747
#	139845
#
# Disc length: 2308 seconds
#
# Revision: 1
# Processed by: cddbd v1.5.2PL0 Copyright (c) Steve Scherf et al.
# Submitted via: audiograbber 1.83.01
#
DISCID=8909020a
DTITLE=The Heaters - 90 MPH
DYEAR=1992
DGENRE=Rock Blues
TTITLE0=TURN IT UP
TTITLE1=HIGH TIME WOMAN
TTITLE2=90 MPH
TTITLE3=NEVER TO TUFF TO CRY
TTITLE4=I WANT TO LOVE YOU TONIGHT
TTITLE5=YOU AIN'T FOOLING ME
TTITLE6=BACKSTREET BLUES
TTITLE7=COME DOWN HARD
TTITLE8=HAVE YOU CHANGED YOUR MIND
TTITLE9=TEX-MEX BLUES
EXTD=
EXTT0=
EXTT1=
EXTT2=
EXTT3=
EXTT4=
EXTT5=
EXTT6=
EXTT7=
EXTT8=
EXTT9=
PLAYORDER=
